<svg width="57" height="46" viewBox="0 0 57 46" fill="none" xmlns="http://www.w3.org/2000/svg">
<rect y="27.4722" width="10.2222" height="10.2222" fill="#D9D9D9"/>
<rect x="46.6389" y="27.4722" width="10.2222" height="10.2222" fill="#D9D9D9"/>
<rect x="23" width="10.2222" height="10.2222" fill="#D9D9D9"/>
<path d="M5.16058 32.5833C5.16058 32.5833 2.9292 5.11108 28.4305 5.11108C53.9319 5.11109 51.7005 32.5833 51.7005 32.5833" stroke="#D9D9D9" stroke-width="3"/>
<path d="M16.2917 32.2639L25.5556 12.1389V29.3889C25.5556 29.3889 25.5991 31.0369 26.1945 31.625C26.8704 32.2927 28.75 32.2639 28.75 32.2639V46H23L16.2917 32.2639Z" fill="#D9D9D9"/>
<path d="M39.2917 32.2639L30.0278 12.1389V29.3889C30.0278 29.3889 29.9843 31.0369 29.3889 31.625C28.713 32.2927 26.8334 32.2639 26.8334 32.2639V46H32.5834L39.2917 32.2639Z" fill="#D9D9D9"/>
</svg>
